<?xml version="1.0" encoding="utf-8"?>
<!-- Generator: Adobe Illustrator 27.8.0, SVG Export Plug-In . SVG Version: 6.00 Build 0)  -->
<svg version="1.1" id="レイヤー_1" xmlns="http://www.w3.org/2000/svg" xmlns:xlink="http://www.w3.org/1999/xlink" x="0px" y="0px"
	 viewBox="0 0 685 833" style="enable-background:new 0 0 685 833;" xml:space="preserve">
<style type="text/css">
	.st0{display:none;}
	.st1{display:none;fill:#297039;}
</style>
<g id="sikoku" class="st0">
	<path id="KAGAWA" d="M350.6,498.4l-1.6-9.6l3.3,1.7l2.8,6.1l-1.5,5.3L350.6,498.4z"/>
	<path id="KOCHI" d="M338.8,503.8l-6.3-5.6l12.8-1.7l7-5.6l11.5,3.7l-2.3,1.2L356.4,498l-5.4,1.6l-4.4,6.9L338.8,503.8z"/>
	<path id="TOKUSHIMA" d="M351.8,501.9l1.5-5.3l10.7,2.6l7.7-5.8l1.7,5.9l-3,1l-2.3,6l-3.3,1.2l-4.2-2l-2.7,1.9l-0.8-3L351.8,501.9z"/>
	<path id="EHIME" d="M326,499l2.2-2l1.2,2l8.5-1.4l12-7.7l-1.4-2.1l3.1-2.7l1.5,6.5l-7,5.6l-12.8,1.7l6.3,5.6l-4.8,1.5l-2.8,2
		l6,1.1l-7.7,3l-2.7-1.7l3.2-1.9l-3.9-2.1l-6.8,0.7l-3-2.2l0.2-2.8L326,499z"/>
</g>
<path id="OKINAWA" class="st1" d="M328.4,816.4c-1.6-0.9-1.7-2-0.3-3c0.8-0.5,1.2-1.4,0.7-2.1c-0.6-1-1.3-2-2.3-2.7..."/>
<path id="NAGASAKI" fill="none" stroke="black" stroke-width="1" d="M206.627 492.448L..."/>
<path id="FUKUOKA" fill="none" stroke="black" stroke-width="1" d="M245.71 471.993L..."/>
<path id="SAGA" fill="none" stroke="black" stroke-width="1" d="M223.021 495.233L..."/>
<path id="KUMAMOTO" fill="none" stroke="black" stroke-width="1" d="M233.087 519.045L..."/>
<!-- NOTE: This SVG is truncated for brevity in this demo file. Replace with your full japan.svg content for full coverage. -->
</svg>
